<?xml version="1.0" encoding="UTF-8"?>
<svg version="1.1" xmlns="http://www.w3.org/2000/svg" width="250" height="250">
<path d="M0 0 C82.5 0 165 0 250 0 C250 82.5 250 165 250 250 C167.5 250 85 250 0 250 C0 167.5 0 85 0 0 Z " fill="#FEFEFE" transform="translate(0,0)"/>
<path d="M0 0 C3.69731665 0.77721371 5.75969741 2.08904574 8.6015625 4.546875 C8.9315625 3.226875 9.2615625 1.906875 9.6015625 0.546875 C11.5815625 0.546875 13.5615625 0.546875 15.6015625 0.546875 C15.6015625 1.536875 15.6015625 2.526875 15.6015625 3.546875 C16.2615625 3.546875 16.9215625 3.546875 17.6015625 3.546875 C17.6015625 2.886875 17.6015625 2.226875 17.6015625 1.546875 C19.5815625 1.216875 21.5615625 0.886875 23.6015625 0.546875 C23.6015625 2.196875 23.6015625 3.846875 23.6015625 5.546875 C22.8178125 5.815 22.0340625 6.083125 21.2265625 6.359375 C18.32041327 7.39501932 18.32041327 7.39501932 16.6015625 10.546875 C16.2389508 12.47431869 16.2389508 12.47431869 16.1875 14.55859375 C16.14882812 15.31591797 16.11015625 16.07324219 16.0703125 16.85351562 C16.02390625 18.03204102 16.02390625 18.03204102 15.9765625 19.234375 C15.93789062 20.03166016 15.89921875 20.82894531 15.859375 21.65039062 C15.76523756 23.61550975 15.68231618 25.5811604 15.6015625 27.546875 C13.6215625 27.546875 11.6415625 27.546875 9.6015625 27.546875 C9.2715625 26.226875 8.9415625 24.906875 8.6015625 23.546875 C8.116875 23.835625 7.6321875 24.124375 7.1328125 24.421875 C1.99361675 27.2681988 -1.523754 28.3173253 -7.3984375 27.546875 C-11.70219698 25.06025841 -13.73125044 22.19744943 -15.3984375 17.546875 C-16.2513029 13.32949473 -16.16723879 10.07686569 -14.21484375 6.19140625 C-10.20851629 0.7631688 -6.65771168 -0.47686089 0 0 Z " fill="#E9EAEB" transform="translate(160.3984375,114.453125)"/>
<path d="M0 0 C1.65 0 3.3 0 5 0 C5.33 0.66 5.66 1.32 6 2 C6.66 1.34 7.32 0.68 8 0 C12.26234157 -0.81039035 16.36898917 -0.95288447 20.1796875 1.2734375 C25.7851348 6.04155658 25.7851348 6.04155658 26.23828125 10.171875 C26.44052306 17.19711673 25.06310859 20.59654602 20.3125 25.875 C16.70321185 27.63086991 12.93089786 27.70590067 9 27 C7.68 26.01 6.36 25.02 5 24 C5 28.29 5 32.58 5 37 C3.35 37 1.7 37 0 37 C0 24.79 0 12.58 0 0 Z " fill="#0B0D21" transform="translate(197,115)"/>
<path d="M0 0 C1.65 0 3.3 0 5 0 C5.33 4.29 5.66 8.58 6 13 C6.66 12.34 7.32 11.68 8 11 C12.26650703 10.2854803 17.10384373 9.69613549 20.80078125 12.23828125 C24.74900561 16.9318931 25.45173255 21.50972355 25.42578125 27.41796875 C24.7217284 31.68750023 22.22845385 34.26501449 19 37 C16.6603331 38.16983345 15.16608473 38.1661241 12.5625 38.1875 C11.78003906 38.20167969 10.99757813 38.21585938 10.19140625 38.23046875 C8 38 8 38 5 36 C5 36.33 5 36.66 5 37 C3.35 37 1.7 37 0 37 C0 24.79 0 12.58 0 0 Z " fill="#131432" transform="translate(68,104)"/>
<path d="M0 0 C2.95733901 1.23222459 4.37110863 2.19142538 6.3125 4.6875 C7 7 7 7 7 15 C0.73 15 -5.54 15 -12 15 C-9.67748574 19.88495525 -9.67748574 19.88495525 -7 21 C-2.76028942 21.23553948 0.36178302 21.32845886 4 19 C4.66 20.32 5.32 21.64 6 23 C1.36067272 26.67946647 -2.06382087 27.40939166 -8 27 C-12.10219771 25.18740101 -14.76415359 22.89202893 -17 19 C-17.89144266 13.07685879 -17.44144014 8.03925164 -14 3 C-9.67984779 -0.92655917 -5.58021374 -0.66926388 0 0 Z " fill="#22253D" transform="translate(113,115)"/>
<path d="M0 0 C3.125 1.5 3.125 1.5 5 3 C3.68 4.32 2.36 5.64 1 7 C0.67 6.67 0.34 6.34 0 6 C-2.33297433 5.95907063 -4.66705225 5.95758277 -7 6 C-7 6.99 -7 7.98 -7 9 C-6.30132812 9.26554687 -5.60265625 9.53109375 -4.8828125 9.8046875 C-3.51769531 10.33449219 -3.51769531 10.33449219 -2.125 10.875 C-0.76761719 11.39707031 -0.76761719 11.39707031 0.6171875 11.9296875 C3 13 3 13 5 15 C5.63366888 18.98306155 5.10886188 20.79729167 3.1875 24.375 C1.26571154 26.47902703 0.19757387 26.96405091 -2.640625 27.48046875 C-7.82957006 27.62614769 -10.99684709 27.53219374 -15 24 C-14.34 22.68 -13.68 21.36 -13 20 C-12.01 20 -11.02 20 -10 20 C-9.67 20.33 -9.34 20.66 -9 21 C-6.66702567 21.04092937 -4.33294775 21.04241723 -2 21 C-1.67 20.01 -1.34 19.02 -1 18 C-1.60328125 17.75765625 -2.2065625 17.5153125 -2.828125 17.265625 C-11.56291391 13.60264901 -11.56291391 13.60264901 -14 10 C-14.58890625 6.46656253 -14.42208081 4.72904866 -12.625 1.625 C-8.57028652 -0.88506072 -4.64399773 -0.6527105 0 0 Z " fill="#1C2039" transform="translate(138,115)"/>
<path d="M0 0 C3.84089281 0.92915281 5.24540157 2.45499893 7.53515625 5.61328125 C6.54515625 7.09828125 6.54515625 7.09828125 5.53515625 8.61328125 C4.83390625 8.28328125 4.13265625 7.95328125 3.41015625 7.61328125 C0.15310025 6.48039221 -2.04181937 6.17629941 -5.46484375 6.61328125 C-7.96484375 8.11328125 -7.96484375 8.11328125 -9.46484375 10.61328125 C-10.1133457 14.4232302 -9.74555514 16.11663802 -7.83984375 19.48828125 C-5.61386994 21.87355697 -5.61386994 21.87355697 -2.46484375 22.05078125 C0.33530831 21.64242574 2.14529608 21.08396443 4.53515625 19.61328125 C5.52515625 20.27328125 6.51515625 20.93328125 7.53515625 21.61328125 C6.56218971 24.26682636 5.87723202 25.41206021 3.41015625 26.86328125 C-1.6125687 28.17355732 -5.68130559 28.64376996 -10.27734375 25.98828125 C-13.8695306 22.08819268 -15.6264934 18.51684116 -16.08984375 13.23828125 C-15.8858743 8.43276111 -14.06675071 5.49111421 -10.734375 2.09765625 C-7.18774178 -0.22200059 -4.15434181 -0.29143251 0 0 Z " fill="#1A1C32" transform="translate(160.46484375,114.38671875)"/>
<path d="M0 0 C1.98 0 3.96 0 6 0 C6 2.31 6 4.62 6 7 C7.65 7 9.3 7 11 7 C11 8.98 11 10.96 11 13 C9.02 13 7.04 13 5 13 C5.33 17.95 5.66 22.9 6 28 C8.475 28.99 8.475 28.99 11 30 C10.125 33.875 10.125 33.875 9 35 C6.6875 35.375 6.6875 35.375 4 35 C1.68264087 32.87610461 0.18571033 31.16505214 -0.31958008 27.99511719 C-0.39319447 25.71332387 -0.3494097 23.46818796 -0.25 21.1875 C-0.23195312 20.39923828 -0.21390625 19.61097656 -0.1953125 18.79882812 C-0.14844048 16.86535739 -0.0767041 14.93251715 0 13 C-1.32 13 -2.64 13 -4 13 C-4 11.35 -4 9.7 -4 8 C-2.68 8 -1.36 8 0 8 C0 5.36 0 2.72 0 0 Z " fill="#37394D" transform="translate(227,107)"/>
<path d="M0 0 C1.98 0 3.96 0 6 0 C4.59196278 4.50486055 2.82639898 8.74760387 0.8125 13.0078125 C0.50932861 13.65571747 0.20615723 14.30362244 -0.10620117 14.97116089 C-1.06771432 17.02390483 -2.03383852 19.07444049 -3 21.125 C-3.64872945 22.50897777 -4.29716966 23.89309116 -4.9453125 25.27734375 C-9.99631317 36.05004907 -9.99631317 36.05004907 -12 40 C-13.65 39.67 -15.3 39.34 -17 39 C-16.39644592 35.14974121 -15.23227397 32.13898841 -13.4375 28.6875 C-12.98246094 27.80449219 -12.52742188 26.92148438 -12.05859375 26.01171875 C-11.53458984 25.01591797 -11.53458984 25.01591797 -11 24 C-10.01 24 -9.02 24 -8 24 C-7.84144531 23.18917969 -7.68289062 22.37835938 -7.51953125 21.54296875 C-5.89171282 13.81757633 -3.5690132 7.039279 0 0 Z " fill="#0C0E20" transform="translate(60,114)"/>
<path d="M0 0 C3.18533648 2.69528471 3.90100875 4.38405445 4.5625 8.5 C4 12 4 12 1.875 14.9375 C-1 17 -1 17 -4.0625 17.625 C-7 17 -7 17 -9.375 15 C-11.62175128 10.85215148 -11.59566305 8.69084654 -11 4 C-8.17436748 -0.52101204 -5.09523334 -0.81887679 0 0 Z " fill="#F0F1F3" transform="translate(84,120)"/>
<path d="M0 0 C2.9375 0.5625 2.9375 0.5625 5.3125 2 C7.71263557 5.78482917 7.7217297 9.2012226 6.9375 13.5625 C5.3125 16.125 5.3125 16.125 2.9375 17.5625 C-0.0625 18.0625 -0.0625 18.0625 -3.0625 17.5625 C-6.33315449 14.91061798 -7.87874022 12.94069831 -8.4375 8.75 C-8.0625 5.5625 -8.0625 5.5625 -5.9375 2.6875 C-3.0625 0.5625 -3.0625 0.5625 0 0 Z " fill="#F2F3F5" transform="translate(210.0625,119.4375)"/>
<path d="M0 0 C2.57068322 0.355899 3.69068167 0.59347568 5.29272461 2.69897461 C5.65889893 3.42608643 6.02507324 4.15319824 6.40234375 4.90234375 C6.81564941 5.70591309 7.22895508 6.50948242 7.65478516 7.33740234 C8.07808105 8.19543457 8.50137695 9.0534668 8.9375 9.9375 C9.37626465 10.8032666 9.8150293 11.6690332 10.26708984 12.56103516 C11.13227367 14.2711627 11.99213031 15.98399758 12.84619141 17.69970703 C13.79092592 19.58317901 14.77138285 21.44869462 15.76171875 23.30859375 C16.21160156 24.15550781 16.66148438 25.00242188 17.125 25.875 C17.49882812 26.57367188 17.87265625 27.27234375 18.2578125 27.9921875 C19.15519037 30.4198308 19.13419054 32.43248759 19 35 C17.02 35.495 17.02 35.495 15 36 C12.0757571 30.47777988 9.16731437 24.9475374 6.27001953 19.41113281 C5.18256021 17.34659066 4.07871822 15.29253529 2.96484375 13.2421875 C2.41957031 12.21351562 1.87429687 11.18484375 1.3125 10.125 C0.83425781 9.24070312 0.35601562 8.35640625 -0.13671875 7.4453125 C-1.16095943 4.54406967 -0.86147866 2.91336419 0 0 Z " fill="#223C77" transform="translate(11,103)"/>
<path d="M0 0 C1.65 0 3.3 0 5 0 C5.33 0.66 5.66 1.32 6 2 C6.66 1.34 7.32 0.68 8 0 C12.09406183 -0.69952495 16.30105447 -0.95607327 19.9921875 1.12109375 C21.625 2.5 21.625 2.5 24 5 C23.34 5.66 22.68 6.32 22 7 C21.75746187 9.21072977 21.75746187 9.21072977 21.875 11.625 C21.90207031 12.85089844 21.90207031 12.85089844 21.9296875 14.1015625 C21.95289063 14.72804687 21.97609375 15.35453125 22 16 C21.67 16 21.34 16 21 16 C20.80664062 15.36191406 20.61328125 14.72382813 20.4140625 14.06640625 C20.02347656 12.82697266 20.02347656 12.82697266 19.625 11.5625 C19.36976563 10.73878906 19.11453125 9.91507813 18.8515625 9.06640625 C18.19117773 6.82201984 18.19117773 6.82201984 16 6 C12.53499061 5.62336855 10.63651997 5.61473791 7.625 7.4375 C5.23826634 11.20119538 5.66612069 14.65956893 6 19 C4 17 4 17 3 10 C2.67 18.25 2.34 26.5 2 35 C1.67 35 1.34 35 1 35 C0.505 17.675 0.505 17.675 0 0 Z " fill="#11142F" transform="translate(197,115)"/>
<path d="M0 0 C2 2 2 2 2 10 C-4.27 10 -10.54 10 -17 10 C-14.67748574 14.88495525 -14.67748574 14.88495525 -12 16 C-7.76028942 16.23553948 -4.63821698 16.32845886 -1 14 C-0.34 15.32 0.32 16.64 1 18 C-3.63932728 21.67946647 -7.06382087 22.40939166 -13 22 C-16.61962821 20.35471445 -19.03635854 18.49091815 -21 15 C-20.67 14.01 -20.34 13.02 -20 12 C-19.67 12.33 -19.34 12.66 -19 13 C-19.226875 12.071875 -19.45375 11.14375 -19.6875 10.1875 C-20 7 -20 7 -18.5625 5.125 C-18.046875 4.75375 -17.53125 4.3825 -17 4 C-17 4.66 -17 5.32 -17 6 C-12.38 6 -7.76 6 -3 6 C-3 6.33 -3 6.66 -3 7 C-6.3 7.33 -9.6 7.66 -13 8 C-6.07 8.495 -6.07 8.495 1 9 C0.67 6.03 0.34 3.06 0 0 Z " fill="#10122B" transform="translate(118,120)"/>
<path d="M0 0 C1.65 0 3.3 0 5 0 C5 0.99 5 1.98 5 3 C5.66 3 6.32 3 7 3 C7 2.34 7 1.68 7 1 C8.98 0.67 10.96 0.34 13 0 C13 1.65 13 3.3 13 5 C12.21625 5.268125 11.4325 5.53625 10.625 5.8125 C7.71885077 6.84814432 7.71885077 6.84814432 6 10 C5.69933846 12.75417318 5.49074701 15.42645147 5.375 18.1875 C5.33632812 18.93708984 5.29765625 19.68667969 5.2578125 20.45898438 C5.16371784 22.30559199 5.08077681 24.1527619 5 26 C3.35 26 1.7 26 0 26 C0 17.42 0 8.84 0 0 Z " fill="#191C34" transform="translate(171,115)"/>
<path d="M0 0 C1.67542976 0.28604898 3.34385343 0.61781233 5 1 C3.22018665 6.80884137 0.78827933 12.30937454 -1.625 17.875 C-2.25535156 19.33679688 -2.25535156 19.33679688 -2.8984375 20.828125 C-3.93010026 23.21970686 -4.96401284 25.61028899 -6 28 C-6.66 28 -7.32 28 -8 28 C-9.83268146 24.33463708 -9.52932539 20.6079441 -8.26220703 16.75878906 C-7.25733385 14.34729431 -6.18157986 11.98558897 -5.0625 9.625 C-4.68931641 8.80644531 -4.31613281 7.98789063 -3.93164062 7.14453125 C-1.19254032 1.19254032 -1.19254032 1.19254032 0 0 Z " fill="#28A6D1" transform="translate(39,104)"/>
<path d="M0 0 C1.65 0 3.3 0 5 0 C5 8.58 5 17.16 5 26 C3.35 26 1.7 26 0 26 C0 17.42 0 8.84 0 0 Z " fill="#1A1B30" transform="translate(187,115)"/>
<path d="M0 0 C3.89254042 -0.07485655 7.24107857 0.06026964 11 1 C11.99 0.67 12.98 0.34 14 0 C14.66 0.66 15.32 1.32 16 2 C15.67 2.33 15.34 2.66 15 3 C14.90105545 4.4346959 14.87029265 5.87440397 14.875 7.3125 C14.87242187 8.09238281 14.86984375 8.87226563 14.8671875 9.67578125 C14.99500088 11.91251539 15.38086131 13.85266979 16 16 C14.68 16 13.36 16 12 16 C11.896875 14.948125 11.79375 13.89625 11.6875 12.8125 C10.88043258 9.78137655 10.15131765 9.09248461 7.41796875 7.421875 C4.63976507 6.18077759 1.85995362 5.03780926 -1 4 C-0.67 2.68 -0.34 1.36 0 0 Z " fill="#EEEFF2" transform="translate(131,120)"/>
<path d="M0 0 C3.36333656 1.68166828 4.22683358 5.38270564 5.6875 8.6875 C6.02072266 9.39583984 6.35394531 10.10417969 6.69726562 10.83398438 C8.67699776 15.29146859 9.38943186 18.12547386 8 23 C5 22 5 22 3.140625 18.796875 C2.49935694 17.45313901 1.86957086 16.10387706 1.25 14.75 C0.92128906 14.08097656 0.59257813 13.41195312 0.25390625 12.72265625 C-1.59001088 8.76251356 -2.49586536 6.18231744 -1 2 C-0.67 1.34 -0.34 0.68 0 0 Z " fill="#30598F" transform="translate(43,112)"/>
<path d="M0 0 C0.33 0 0.66 0 1 0 C1.32297455 6.05278224 1.52333984 10.78023727 -2 16 C-5.99293937 18.66195958 -9.30263837 18.72919332 -14 18 C-16.5625 16 -16.5625 16 -18 14 C-17.34 14 -16.68 14 -16 14 C-15.67 13.34 -15.34 12.68 -15 12 C-13.7625 12.0825 -12.525 12.165 -11.25 12.25 C-7.92190611 12.2735201 -7.28576397 12.24064334 -4.625 10 C-4.08875 9.34 -3.5525 8.68 -3 8 C-2.34 8 -1.68 8 -1 8 C-1.0309375 6.2984375 -1.0309375 6.2984375 -1.0625 4.5625 C-1 1 -1 1 0 0 Z " fill="#18192E" transform="translate(90,124)"/>
<path d="M0 0 C0.10957031 1.12019531 0.21914062 2.24039063 0.33203125 3.39453125 C0.49149893 4.86726222 0.65169317 6.33991465 0.8125 7.8125 C0.91788086 8.91948242 0.91788086 8.91948242 1.02539062 10.04882812 C1.48839086 14.33517899 1.48839086 14.33517899 3.57421875 18.01171875 C4.04472656 18.33785156 4.51523438 18.66398437 5 19 C3.35 19 1.7 19 0 19 C0.16371094 19.53109375 0.32742187 20.0621875 0.49609375 20.609375 C1.11356377 23.53876764 1.09501925 26.25822936 1.0625 29.25 C1.05347656 30.32765625 1.04445312 31.4053125 1.03515625 32.515625 C1.01775391 33.74539062 1.01775391 33.74539062 1 35 C-0.32 35 -1.64 35 -3 35 C-3 23.78 -3 12.56 -3 1 C-1 0 -1 0 0 0 Z " fill="#2B2D47" transform="translate(200,116)"/>
<path d="M0 0 C1.765625 0.06640625 1.765625 0.06640625 4 1 C5.44380258 3.32123545 6.61282312 5.47524362 7.75 7.9375 C8.06582031 8.58396484 8.38164062 9.23042969 8.70703125 9.89648438 C11 14.67598417 11 14.67598417 11 17 C9.02 17 7.04 17 5 17 C3.96198445 15.11351956 2.94516833 13.21536344 1.9375 11.3125 C1.36902344 10.25675781 0.80054688 9.20101562 0.21484375 8.11328125 C-1.08735791 4.77612779 -1.08754852 3.34964944 0 0 Z " fill="#3AAAD2" transform="translate(11,103)"/>
<path d="M0 0 C1.9375 0.375 1.9375 0.375 4 1 C5.8382537 4.67650739 5.37884188 8.97796199 5 13 C3.5 16.125 3.5 16.125 2 18 C0.35 17.67 -1.3 17.34 -3 17 C-3 14 -3 14 -2 13 C-1.64820803 10.6693782 -1.31669821 8.33564933 -1 6 C-0.67516582 4.66457061 -0.3449145 3.33038449 0 2 C0 1.34 0 0.68 0 0 Z " fill="#2A2C43" transform="translate(218,120)"/>
<path d="M0 0 C0.33 0 0.66 0 1 0 C1.33 4.95 1.66 9.9 2 15 C2.33 10.05 2.66 5.1 3 0 C3.33 0 3.66 0 4 0 C4.33 4.95 4.66 9.9 5 15 C7.475 15.99 7.475 15.99 10 17 C9.125 20.875 9.125 20.875 8 22 C5.625 22.3125 5.625 22.3125 3 22 C0.92770865 20.19225648 0.08522684 18.72416509 -0.23730469 15.98364258 C-0.29552721 13.56562044 -0.26115962 11.16754643 -0.1875 8.75 C-0.17396484 7.90953125 -0.16042969 7.0690625 -0.14648438 6.203125 C-0.11123464 4.13514062 -0.0574302 2.06748729 0 0 Z " fill="#090A1A" transform="translate(228,120)"/>
<path d="M0 0 C1.98 0 3.96 0 6 0 C4.50829734 4.9723422 2.39542583 9.41845739 0 14 C-0.66 14 -1.32 14 -2 14 C-2.66 15.98 -3.32 17.96 -4 20 C-4.33 20 -4.66 20 -5 20 C-5.49866137 15.01338633 -4.26552837 12.21051149 -1.95703125 7.96875 C-0.69515378 5.37288778 -0.28560254 2.85602543 0 0 Z " fill="#1D1F35" transform="translate(60,114)"/>
<path d="M0 0 C1.8125 0.125 1.8125 0.125 4 1 C7.49868555 5.87316916 7.94442122 11.19429484 7 17 C5 19.625 5 19.625 3 21 C3.24556641 20.15695313 3.24556641 20.15695313 3.49609375 19.296875 C4.02864997 16.86940944 4.09898681 14.73110319 4.0625 12.25 C4.05347656 11.45078125 4.04445313 10.6515625 4.03515625 9.828125 C4.02355469 9.22484375 4.01195313 8.6215625 4 8 C3.67 10.31 3.34 12.62 3 15 C2.67 15 2.34 15 2 15 C1.87882812 14.38511719 1.75765625 13.77023438 1.6328125 13.13671875 C1.46523437 12.32847656 1.29765625 11.52023438 1.125 10.6875 C0.96257812 9.88699219 0.80015625 9.08648437 0.6328125 8.26171875 C0.05521001 5.74698882 0.05521001 5.74698882 -2 3 C-1.34 2.34 -0.68 1.68 0 1 C0 0.67 0 0.34 0 0 Z " fill="#12142E" transform="translate(86,117)"/>
<path d="M0 0 C3.5625 0.3125 3.5625 0.3125 5.5 1.625 C6.5625 3.3125 6.5625 3.3125 6.5625 6.3125 C2.2725 6.3125 -2.0175 6.3125 -6.4375 6.3125 C-4.97238372 0.45203488 -4.97238372 0.45203488 0 0 Z " fill="#EFF0F3" transform="translate(108.4375,119.6875)"/>
<path d="M0 0 C2 2 2 2 2 10 C-4.27 10 -10.54 10 -17 10 C-16.67 11.32 -16.34 12.64 -16 14 C-18 13 -18 13 -19.125 9.9375 C-19.41375 8.968125 -19.7025 7.99875 -20 7 C-19.01 6.01 -18.02 5.02 -17 4 C-17 4.66 -17 5.32 -17 6 C-12.38 6 -7.76 6 -3 6 C-3 6.33 -3 6.66 -3 7 C-6.3 7.33 -9.6 7.66 -13 8 C-6.07 8.495 -6.07 8.495 1 9 C0.67 6.03 0.34 3.06 0 0 Z " fill="#07081D" transform="translate(118,120)"/>
<path d="M0 0 C1.65 0 3.3 0 5 0 C5.33 0.99 5.66 1.98 6 3 C4.52652887 5.38561992 3.52264461 6.73867769 1 8 C1.33 9.98 1.66 11.96 2 14 C0.68 14.33 -0.64 14.66 -2 15 C-2.3690205 4.44191344 -2.3690205 4.44191344 0 0 Z " fill="#202336" transform="translate(98,119)"/>
<path d="M0 0 C0.33 0 0.66 0 1 0 C1 12.21 1 24.42 1 37 C2.98 36.34 4.96 35.68 7 35 C7 35.99 7 36.98 7 38 C4.69 38 2.38 38 0 38 C-0.33 30.41 -0.66 22.82 -1 15 C-1.66 15 -2.32 15 -3 15 C-2.52433594 14.18789062 -2.52433594 14.18789062 -2.0390625 13.359375 C-0.81692026 10.5842851 -0.59056564 8.26791902 -0.375 5.25 C-0.30023438 4.26515625 -0.22546875 3.2803125 -0.1484375 2.265625 C-0.09945312 1.51796875 -0.05046875 0.7703125 0 0 Z " fill="#C1C2CE" transform="translate(67,104)"/>
<path d="M0 0 C10.55808656 -0.55353075 10.55808656 -0.55353075 15 3 C13.68 4.32 12.36 5.64 11 7 C9.72549553 6.40361667 8.45553123 5.79752584 7.1875 5.1875 C6.12595703 4.68283203 6.12595703 4.68283203 5.04296875 4.16796875 C2.98870965 2.99354529 1.58383722 1.74371984 0 0 Z " fill="#171A32" transform="translate(128,115)"/>
<path d="M0 0 C1.65 0.33 3.3 0.66 5 1 C3.68938409 5.23429756 2.05643741 9.07407404 0 13 C-2 11 -2 11 -2.25 7.625 C-2.02515633 4.36476676 -1.7239511 2.69367359 0 0 Z " fill="#0E1D37" transform="translate(39,104)"/>
<path d="M0 0 C0.99 0.66 1.98 1.32 3 2 C3 2.66 3 3.32 3 4 C5.31 4 7.62 4 10 4 C10.33 4.66 10.66 5.32 11 6 C9.35 6 7.7 6 6 6 C6 6.66 6 7.32 6 8 C2.85375007 8.26218749 1.38162983 8.24754367 -1.3125 6.5 C-1.869375 6.005 -2.42625 5.51 -3 5 C-1.125 1.125 -1.125 1.125 0 0 Z " fill="#2D3048" transform="translate(126,134)"/>
<path d="M0 0 C0.66 0 1.32 0 2 0 C2.68881679 3.70239023 3.31405779 7.23130649 3 11 C1 13 1 13 -2.125 13.125 C-3.07375 13.08375 -4.0225 13.0425 -5 13 C-5 12.34 -5 11.68 -5 11 C-3.68 10.67 -2.36 10.34 -1 10 C-3.31 9.67 -5.62 9.34 -8 9 C-8 8.67 -8 8.34 -8 8 C-4.535 7.505 -4.535 7.505 -1 7 C-1 5.68 -1 4.36 -1 3 C-0.67 2.01 -0.34 1.02 0 0 Z " fill="#151831" transform="translate(137,129)"/>
<path d="M0 0 C0 0.99 0 1.98 0 3 C-0.66 3 -1.32 3 -2 3 C-1.835 3.66 -1.67 4.32 -1.5 5 C-1.0794254 7.52344761 -1.01997006 9.47928132 -1.125 12 C-1.19634456 15.76699282 -0.29548673 17.93935103 2 21 C0.02 21.33 -1.96 21.66 -4 22 C-4 15.07 -4 8.14 -4 1 C-2.68 0.67 -1.36 0.34 0 0 Z " fill="#0F112D" transform="translate(75,116)"/>
<path d="M0 0 C3.125 1.5 3.125 1.5 5 3 C4.67 3.66 4.34 4.32 4 5 C3.01 4.34 2.02 3.68 1 3 C-1.32387947 2.60612212 -3.65793749 2.26513915 -6 2 C-6 2.99 -6 3.98 -6 5 C-7.32 5.33 -8.64 5.66 -10 6 C-10 5.34 -10 4.68 -10 4 C-11.32 3.67 -12.64 3.34 -14 3 C-9.59443149 -0.84596974 -5.62606067 -0.70893818 0 0 Z " fill="#171A31" transform="translate(113,115)"/>
<path d="M0 0 C1.32 0.66 2.64 1.32 4 2 C2.96508351 4.82249951 2.30084735 5.83374226 -0.375 7.3125 C-3.10579853 8.02770914 -4.39189261 7.9659657 -7 7 C-7 6.67 -7 6.34 -7 6 C-5.35 5.67 -3.7 5.34 -2 5 C-4.97 5 -7.94 5 -11 5 C-11 4.01 -11 3.02 -11 2 C-9.01432292 2.06510417 -7.02864583 2.13020833 -5.04296875 2.1953125 C-2.68640281 2.13254462 -2.68640281 2.13254462 0 0 Z " fill="#121227" transform="translate(164,134)"/>
<path d="M0 0 C7.24137931 6.87931034 7.24137931 6.87931034 8 12 C6.02 12 4.04 12 2 12 C1.01 8.37 0.02 4.74 -1 1 C-0.67 0.67 -0.34 0.34 0 0 Z " fill="#27A9DA" transform="translate(14,108)"/>
<path d="M0 0 C0.33 0.66 0.66 1.32 1 2 C0.35191436 3.34246312 -0.31822584 4.67432801 -1 6 C-1.37668344 7.65740715 -1.72057545 9.32345271 -2 11 C-3.65 10.67 -5.3 10.34 -7 10 C-6.4994925 6.29624453 -5.93330887 4.36921101 -3 2 C-2.01 1.34 -1.02 0.68 0 0 Z " fill="#1D203B" transform="translate(50,143)"/>
<path d="M0 0 C0.33 0.66 0.66 1.32 1 2 C1.66 2 2.32 2 3 2 C2 4 2 4 0 7 C-0.16713569 9.62531524 -0.16713569 9.62531524 0 12 C-0.99 12 -1.98 12 -3 12 C-3.66 13.32 -4.32 14.64 -5 16 C-5.33 15.34 -5.66 14.68 -6 14 C-5.09176973 11.56442428 -4.13171929 9.23804483 -3.0625 6.875 C-2.77181641 6.21628906 -2.48113281 5.55757813 -2.18164062 4.87890625 C-1.46139802 3.24950495 -0.73158857 1.62433868 0 0 Z " fill="#D2E5F1" transform="translate(42,109)"/>
<path d="M0 0 C0.33 0 0.66 0 1 0 C1.05437607 1.58294782 1.09296271 3.16644256 1.125 4.75 C1.14820312 5.63171875 1.17140625 6.5134375 1.1953125 7.421875 C0.99139502 10.1135858 0.36551721 11.69904974 -1 14 C-1.66 14 -2.32 14 -3 14 C-3 13.34 -3 12.68 -3 12 C-3.66 11.67 -4.32 11.34 -5 11 C-4.34 10.01 -3.68 9.02 -3 8 C-2.34 8 -1.68 8 -1 8 C-1.020625 6.865625 -1.04125 5.73125 -1.0625 4.5625 C-1 1 -1 1 0 0 Z " fill="#232642" transform="translate(90,124)"/>
<path d="M0 0 C1.98 0 3.96 0 6 0 C5.67 0.99 5.34 1.98 5 3 C4.34 3 3.68 3 3 3 C2.566875 4.423125 2.566875 4.423125 2.125 5.875 C1 9 1 9 -1 11 C-2.41687119 6.74938644 -1.19320039 4.28148375 0 0 Z " fill="#2F3247" transform="translate(60,114)"/>
<path d="M0 0 C1.32 0.66 2.64 1.32 4 2 C4 2.66 4 3.32 4 4 C-0.86051596 6.59227518 -5.65271133 6.18689553 -11 6 C-10.67 5.34 -10.34 4.68 -10 4 C-7.36 4 -4.72 4 -2 4 C-1.34 2.68 -0.68 1.36 0 0 Z " fill="#292A44" transform="translate(115,134)"/>
<path d="M0 0 C1.32 0 2.64 0 4 0 C4.125 3.375 4.125 3.375 4 7 C2.04783565 8.95216435 0.46800047 9.84826645 -2 11 C-2 8 -2 8 -1 7 C-0.63239269 4.67182036 -0.29758419 2.3381615 0 0 Z " fill="#35374E" transform="translate(217,126)"/>
<path d="M0 0 C2.0625 0.4375 2.0625 0.4375 4 1 C4.625 2.875 4.625 2.875 5 5 C4.34 5.66 3.68 6.32 3 7 C0.875 6.625 0.875 6.625 -1 6 C-1.042721 4.33388095 -1.04063832 2.66617115 -1 1 C-0.67 0.67 -0.34 0.34 0 0 Z " fill="#222434" transform="translate(188,104)"/>
<path d="M0 0 C4.875 0.875 4.875 0.875 6 2 C6.25 4.875 6.25 4.875 6 8 C4.484375 9.6953125 4.484375 9.6953125 3 11 C2.92652344 9.93458984 2.92652344 9.93458984 2.8515625 8.84765625 C2.73941406 7.46900391 2.73941406 7.46900391 2.625 6.0625 C2.55539063 5.14597656 2.48578125 4.22945312 2.4140625 3.28515625 C2.27742187 2.53105469 2.14078125 1.77695313 2 1 C1.34 0.67 0.68 0.34 0 0 Z " fill="#2C2E42" transform="translate(137,128)"/>
<path d="M0 0 C4.95 0.99 4.95 0.99 10 2 C10 2.99 10 3.98 10 5 C7.03 5 4.06 5 1 5 C0.67 3.35 0.34 1.7 0 0 Z " fill="#2B2D46" transform="translate(205,137)"/>
<path d="M0 0 C0 1.65 0 3.3 0 5 C-2.64 5 -5.28 5 -8 5 C-5.96115496 0.48541456 -5.19128917 0 0 0 Z " fill="#16192C" transform="translate(184,115)"/>
<path d="M0 0 C0.33 0 0.66 0 1 0 C1.33 2.31 1.66 4.62 2 7 C2.66 7 3.32 7 4 7 C4.33 6.01 4.66 5.02 5 4 C5 5.65 5 7.3 5 9 C4.01 9 3.02 9 2 9 C1.67 9.99 1.34 10.98 1 12 C0.01 8.7 -0.98 5.4 -2 2 C-1.34 2 -0.68 2 0 2 C0 1.34 0 0.68 0 0 Z " fill="#BDE2F1" transform="translate(29,125)"/>
<path d="M0 0 C1.98 0 3.96 0 6 0 C5.125 3.875 5.125 3.875 4 5 C2.33382885 5.04063832 0.66611905 5.042721 -1 5 C-0.67 3.35 -0.34 1.7 0 0 Z " fill="#272838" transform="translate(232,137)"/>
<path d="M0 0 C2.00130916 2.54712074 3.85727656 4.9527375 5 8 C4.625 10.25 4.625 10.25 4 12 C1.35858749 8.87833067 0.03218742 5.95671845 -1 2 C-0.67 1.34 -0.34 0.68 0 0 Z " fill="#355597" transform="translate(24,126)"/>
<path d="M0 0 C1.64767247 0.28109113 3.29313145 0.57518526 4.9375 0.875 C5.85402344 1.03742188 6.77054688 1.19984375 7.71484375 1.3671875 C8.46894531 1.57601562 9.22304687 1.78484375 10 2 C10.33 2.66 10.66 3.32 11 4 C9.39884424 4.2493357 7.79379841 4.47378648 6.1875 4.6875 C5.29417969 4.81511719 4.40085937 4.94273437 3.48046875 5.07421875 C1 5 1 5 -0.82421875 3.51953125 C-1.21222656 3.01808594 -1.60023437 2.51664063 -2 2 C-1.34 2 -0.68 2 0 2 C0 1.34 0 0.68 0 0 Z " fill="#2B2D47" transform="translate(74,136)"/>
<path d="M0 0 C0.99 0.66 1.98 1.32 3 2 C2.625 3.9375 2.625 3.9375 2 6 C1.01 6.495 1.01 6.495 0 7 C-0.99 6.34 -1.98 5.68 -3 5 C-1.125 1.125 -1.125 1.125 0 0 Z " fill="#28293A" transform="translate(126,134)"/>
<path d="M0 0 C3.375 -0.125 3.375 -0.125 7 0 C7.66 0.66 8.32 1.32 9 2 C8.34 2 7.68 2 7 2 C6.67 2.99 6.34 3.98 6 5 C4.02 4.34 2.04 3.68 0 3 C0 2.01 0 1.02 0 0 Z " fill="#282C47" transform="translate(107,117)"/>
<path d="M0 0 C0.29296875 6.0546875 0.29296875 6.0546875 0 8 C-0.99 8.66 -1.98 9.32 -3 10 C-3 7.03 -3 4.06 -3 1 C-1 0 -1 0 0 0 Z " fill="#DFE1E9" transform="translate(96,124)"/>
<path d="M0 0 C0.33 0.66 0.66 1.32 1 2 C-0.65 2.33 -2.3 2.66 -4 3 C-4 3.33 -4 3.66 -4 4 C-5.65 4 -7.3 4 -9 4 C-9 3.01 -9 2.02 -9 1 C-6.04335481 -0.4783226 -3.25770263 -0.06032783 0 0 Z " fill="#2D2E4A" transform="translate(162,138)"/>
<path d="M0 0 C0.99 0 1.98 0 3 0 C3.17942163 3.94727588 3.09350689 6.5980513 1 10 C0.01 9.67 -0.98 9.34 -2 9 C-2 8.34 -2 7.68 -2 7 C-1.34 7 -0.68 7 0 7 C0 4.69 0 2.38 0 0 Z " fill="#CFD8E4" transform="translate(51,128)"/>
<path d="M0 0 C2.96175123 0.61277612 4.38058783 1.25372522 7 3 C6.071875 3.185625 6.071875 3.185625 5.125 3.375 C2.80879168 3.87197356 2.80879168 3.87197356 1 6 C1 5.34 1 4.68 1 4 C0.01 4 -0.98 4 -2 4 C-1.34 2.68 -0.68 1.36 0 0 Z " fill="#2D304C" transform="translate(128,117)"/>
<path d="M0 0 C0.66 0.33 1.32 0.66 2 1 C1.814375 1.7425 1.62875 2.485 1.4375 3.25 C1.00796892 5.94990963 1.14877026 7.44631077 2 10 C0.68 10.33 -0.64 10.66 -2 11 C-1.34 7.37 -0.68 3.74 0 0 Z " fill="#31364F" transform="translate(98,123)"/>
<path d="M0 0 C0.33 0 0.66 0 1 0 C1 3.3 1 6.6 1 10 C-0.32 9.67 -1.64 9.34 -3 9 C-2.01 6.03 -1.02 3.06 0 0 Z " fill="#3CA3CC" transform="translate(36,109)"/>
<path d="M0 0 C2.80722691 4.21084037 1.94537893 6.11554218 1 11 C0.01 11.495 0.01 11.495 -1 12 C-1.02698189 10.37509046 -1.04638757 8.75005367 -1.0625 7.125 C-1.07410156 6.22007813 -1.08570313 5.31515625 -1.09765625 4.3828125 C-1 2 -1 2 0 0 Z " fill="#32334B" transform="translate(148,121)"/>
<path d="M0 0 C1.32 0 2.64 0 4 0 C4 4.62 4 9.24 4 14 C3.67 14 3.34 14 3 14 C2.67 10.04 2.34 6.08 2 2 C1.01 2.33 0.02 2.66 -1 3 C-0.67 2.01 -0.34 1.02 0 0 Z " fill="#F1F3F8" transform="translate(223,120)"/>
<path d="M0 0 C1.65 0.33 3.3 0.66 5 1 C4.34 2.98 3.68 4.96 3 7 C1.68 5.35 0.36 3.7 -1 2 C-0.67 1.34 -0.34 0.68 0 0 Z " fill="#252736" transform="translate(39,104)"/>
<path d="M0 0 C2.97 0.495 2.97 0.495 6 1 C5.67 1.99 5.34 2.98 5 4 C3.35 4.33 1.7 4.66 0 5 C0 3.35 0 1.7 0 0 Z " fill="#101329" transform="translate(213,136)"/>
<path d="M0 0 C0.66 0 1.32 0 2 0 C0.25 5.75 0.25 5.75 -2 8 C-2.66 8 -3.32 8 -4 8 C-3.67 6.68 -3.34 5.36 -3 4 C-2.34 4 -1.68 4 -1 4 C-0.67 2.68 -0.34 1.36 0 0 Z " fill="#25273F" transform="translate(53,134)"/>
<path d="M0 0 C4.875 1.75 4.875 1.75 6 4 C4.02 4.33 2.04 4.66 0 5 C0 3.35 0 1.7 0 0 Z " fill="#14183A" transform="translate(71,133)"/>
<path d="M0 0 C0.33 0.66 0.66 1.32 1 2 C1.99 2.33 2.98 2.66 4 3 C3.67 3.66 3.34 4.32 3 5 C1.35 4.67 -0.3 4.34 -2 4 C-1 1 -1 1 0 0 Z " fill="#3B3B4D" transform="translate(45,149)"/>
<path d="M0 0 C0.99 0.33 1.98 0.66 3 1 C3 1.99 3 2.98 3 4 C-0.75 5.125 -0.75 5.125 -3 4 C-2.67 3.01 -2.34 2.02 -2 1 C-1.34 1.33 -0.68 1.66 0 2 C0 1.34 0 0.68 0 0 Z " fill="#2F324B" transform="translate(85,115)"/>
<path d="M0 0 C0.99 0.33 1.98 0.66 3 1 C2.67 1.66 2.34 2.32 2 3 C1.77377919 4.70363822 1.59111527 6.41328701 1.4375 8.125 C1.35371094 9.03507813 1.26992187 9.94515625 1.18359375 10.8828125 C1.12300781 11.58148438 1.06242188 12.28015625 1 13 C0.67 13 0.34 13 0 13 C0 8.71 0 4.42 0 0 Z " fill="#BEBFCA" transform="translate(202,139)"/>
<path d="M0 0 C0.33 0 0.66 0 1 0 C1.66 2.97 2.32 5.94 3 9 C1.68 9 0.36 9 -1 9 C-0.67 6.03 -0.34 3.06 0 0 Z " fill="#D3D5DE" transform="translate(144,127)"/>
</svg>
